<?xml version="1.0" standalone="no"?>
<!DOCTYPE svg PUBLIC "-//W3C//DTD SVG 20010904//EN"
 "http://www.w3.org/TR/2001/REC-SVG-20010904/DTD/svg10.dtd">
<svg version="1.0" xmlns="http://www.w3.org/2000/svg"
 width="408.000000pt" height="644.000000pt" viewBox="0 0 408.000000 644.000000"
 preserveAspectRatio="xMidYMid meet">

<g transform="translate(0.000000,644.000000) scale(0.100000,-0.100000)"
fill="#000000" stroke="none">
<path d="M0 3220 l0 -3220 2040 0 2040 0 0 3220 0 3220 -2040 0 -2040 0 0
-3220z m2330 2729 c0 -25 -16 -32 -40 -17 -16 10 -24 10 -40 0 -25 -15 -30
-15 -30 1 0 17 39 34 78 34 24 0 32 -5 32 -18z m-460 -383 c0 -2 -8 -10 -17
-17 -16 -13 -17 -12 -4 4 13 16 21 21 21 13z m21 -49 c-1 -12 -15 -9 -19 4 -3
6 1 10 8 8 6 -3 11 -8 11 -12z m-40 -71 c-6 -8 -22 -16 -34 -20 -21 -5 -21 -4
3 14 29 23 48 26 31 6z m-97 -278 c4 -17 -1 -29 -20 -45 -39 -35 -46 -27 -22
22 26 51 33 54 42 23z m-54 -100 c-1 -7 -17 -31 -36 -53 l-35 -40 31 53 c33
53 40 61 40 40z m-80 -203 c0 -33 -34 -101 -55 -108 -8 -4 -15 -16 -15 -27 0
-11 -5 -19 -12 -17 -20 4 -20 -29 0 -75 19 -42 38 -108 29 -98 -3 3 -19 41
-36 85 l-32 80 -87 -4 c-63 -2 -89 -7 -98 -19 -8 -12 -13 -12 -19 -2 -6 10 -9
9 -16 -1 -6 -9 -8 -2 -5 21 2 21 11 39 25 48 14 10 21 11 21 3 0 -6 -6 -11
-12 -12 -9 0 -9 -2 1 -6 11 -5 11 -7 0 -15 -9 -6 -3 -7 20 -3 18 4 41 8 49 9
20 3 28 26 10 27 -7 1 -24 0 -38 -1 l-25 -2 27 21 c14 12 37 21 50 21 22 0 24
-4 20 -35 -5 -41 4 -43 44 -13 61 46 104 93 104 114 0 20 11 28 43 33 4 0 7
-10 7 -24z m138 -49 c-26 -12 -55 -29 -65 -37 -17 -13 -17 -13 -3 6 35 49 44
55 79 54 l36 -1 -47 -22z m-32 -110 c-3 -13 -9 -31 -12 -40 -4 -10 2 -19 20
-27 l25 -12 -20 -29 c-12 -16 -39 -40 -61 -54 -46 -29 -61 -28 -18 1 32 22 52
56 41 73 -10 16 -37 9 -66 -18 -22 -21 -28 -22 -35 -10 -15 23 -11 37 4 18 12
-16 15 -13 37 32 13 27 30 49 36 50 7 0 18 9 25 20 18 28 31 25 24 -4z m-480
-5 c-4 -5 -3 -11 1 -14 5 -2 2 -2 -4 -1 -7 2 -13 -1 -13 -6 0 -6 -5 -10 -12
-10 -6 0 -3 9 7 20 19 21 30 27 21 11z m155 -43 c-98 -75 -105 -79 -131 -73
-33 9 -50 24 -49 44 0 10 3 8 10 -7 7 -19 15 -23 46 -20 30 2 38 8 43 27 4 16
19 29 50 41 68 27 77 23 31 -12z m104 -72 c4 -19 20 -49 36 -67 28 -34 28 -34
29 -9 1 22 2 23 11 8 5 -10 17 -18 26 -18 13 0 15 -9 11 -45 -5 -44 4 -67 18
-44 12 21 22 -12 13 -44 -10 -37 2 -54 67 -92 29 -17 41 -30 38 -40 -5 -13 -8
-13 -21 0 -8 8 -19 16 -24 16 -19 3 -24 5 -36 12 -6 4 -15 2 -19 -4 -4 -8 -3
-9 4 -5 8 5 12 -1 12 -16 0 -13 -3 -18 -8 -12 -4 6 -25 15 -48 18 -31 6 -44 3
-53 -8 -19 -23 -7 -42 33 -57 19 -7 37 -21 39 -31 3 -10 14 -18 26 -18 17 0
21 6 21 29 0 33 20 43 57 30 16 -6 23 -4 25 8 2 12 7 10 23 -8 15 -18 15 -20
3 -10 -14 10 -18 10 -18 1 0 -7 -7 -10 -15 -6 -8 3 -21 3 -29 0 -18 -7 -28
-79 -17 -124 4 -20 5 -56 1 -80 l-7 -45 -8 52 c-10 67 -27 92 -52 77 -31 -19
-28 -59 6 -95 17 -18 31 -42 31 -54 0 -24 17 -35 52 -35 15 0 18 5 14 16 -5
14 -4 15 8 5 16 -14 28 -51 16 -51 -5 0 -10 4 -12 9 -1 4 -21 10 -43 13 -37 5
-42 3 -67 -33 -28 -40 -56 -54 -43 -21 12 27 11 55 -1 59 -19 6 -27 -115 -9
-140 8 -12 15 -29 15 -39 0 -10 7 -18 15 -18 8 0 15 -5 15 -11 0 -5 -4 -7 -10
-4 -5 3 -10 -1 -10 -10 0 -11 5 -15 15 -11 10 3 14 -1 13 -12 -2 -25 13 -82
23 -82 4 0 9 -10 11 -22 2 -13 10 -23 18 -24 24 -1 60 -15 60 -23 0 -5 -18 -7
-40 -5 -30 3 -40 0 -40 -12 0 -18 32 -32 38 -16 5 17 42 15 42 -3 0 -8 8 -15
17 -15 13 0 14 3 5 12 -20 20 -14 30 16 26 18 -2 36 -15 54 -43 32 -46 34 -64
12 -111 -16 -32 -15 -36 1 -54 10 -11 26 -20 36 -20 10 0 20 -4 23 -8 7 -12
-43 -56 -81 -71 -18 -7 -35 -22 -38 -32 -6 -19 23 -81 35 -74 4 3 6 -6 5 -18
-3 -31 -3 -31 -22 -16 -14 12 -14 9 3 -20 10 -19 25 -36 32 -39 17 -5 15 27
-3 34 -8 4 -13 10 -10 15 3 4 11 6 19 3 9 -3 11 3 8 26 -2 16 -8 33 -13 36
-14 9 -10 24 6 24 9 0 20 -12 26 -27 6 -15 13 -30 17 -33 4 -3 15 -17 24 -32
10 -14 28 -28 40 -30 17 -2 34 -25 69 -92 26 -50 50 -101 52 -115 l5 -26 -19
24 c-11 13 -23 21 -27 17 -3 -4 20 -32 52 -62 33 -30 56 -57 53 -61 -4 -3 -16
2 -28 13 -20 18 -20 18 -14 -11 4 -17 27 -59 50 -95 24 -36 51 -87 59 -113 19
-55 20 -97 3 -52 -17 43 -56 115 -63 115 -3 0 -2 -10 1 -22 5 -16 -6 -9 -39
26 -25 27 -46 51 -46 53 0 2 7 3 15 3 18 0 19 14 5 41 -17 31 -44 23 -59 -16
-7 -19 -17 -35 -24 -35 -8 0 -8 3 1 12 17 17 15 24 -8 24 -18 0 -19 -5 -14
-46 3 -25 6 -59 6 -75 0 -26 6 -33 40 -47 36 -15 40 -20 34 -43 -4 -14 -2 -34
4 -45 9 -16 8 -20 -5 -20 -10 0 -15 -9 -15 -26 0 -19 -4 -25 -15 -20 -11 4
-15 -2 -16 -22 0 -23 -2 -24 -8 -8 -7 18 -8 18 -14 2 -9 -23 -9 -36 1 -35 18
3 26 -2 15 -9 -10 -6 -10 -15 -1 -39 11 -30 9 -36 -35 -102 -29 -44 -47 -82
-47 -100 0 -16 -5 -31 -12 -33 -17 -6 10 -158 28 -158 8 0 14 11 14 26 0 27 6
28 54 9 15 -7 17 -5 11 13 -5 19 -2 22 22 22 34 0 117 -52 104 -66 -13 -13 -1
-64 15 -64 18 0 18 -11 -1 -46 -8 -17 -15 -55 -15 -89 0 -48 6 -70 30 -110 16
-27 30 -58 30 -68 0 -22 23 -31 47 -19 14 8 25 6 42 -8 24 -17 24 -18 3 -24
-17 -6 -19 -11 -12 -36 6 -21 5 -29 -3 -27 -7 1 -11 -6 -11 -15 1 -11 -5 -18
-15 -18 -14 -1 -14 -2 2 -11 11 -6 16 -18 13 -33 -3 -18 2 -26 20 -35 32 -14
37 -14 28 1 -4 7 -7 30 -6 53 0 22 -1 34 -4 28 -3 -7 -11 -13 -17 -13 -6 0 -1
10 11 23 12 13 22 34 22 47 0 34 22 91 35 87 5 -2 16 -16 24 -32 12 -24 11
-32 -3 -62 -25 -52 -21 -101 10 -130 19 -17 29 -21 38 -14 7 6 16 8 19 4 11
-10 8 -71 -3 -78 -5 -3 -10 -10 -10 -15 0 -13 32 0 54 22 14 16 16 24 8 41 -6
12 -11 16 -11 10 -1 -7 -5 -13 -10 -13 -5 0 -5 17 0 41 7 28 6 45 -1 54 -11
13 -22 131 -20 219 1 33 -5 55 -17 68 -17 19 -17 20 2 17 23 -5 32 -32 34
-104 1 -27 8 -61 16 -75 8 -14 14 -35 15 -48 0 -12 6 -33 14 -45 13 -21 23
-61 32 -131 2 -16 8 -34 13 -39 7 -7 9 0 6 19 -4 25 -3 26 6 11 6 -11 9 -32 7
-48 -5 -29 6 -40 15 -16 3 9 9 9 26 -1 46 -27 56 -17 56 52 0 54 4 68 23 86
26 24 28 47 7 97 -26 61 -16 98 14 51 8 -14 13 -44 12 -74 -1 -37 2 -53 12
-57 16 -6 24 -48 33 -179 6 -82 15 -106 28 -75 7 18 28 -17 48 -83 13 -43 14
-51 2 -36 -7 11 -14 23 -14 28 0 19 -18 6 -22 -17 -4 -17 -1 -25 8 -25 9 0 11
-6 7 -17 -6 -16 -5 -17 12 -3 10 8 16 10 12 4 -4 -7 0 -14 8 -18 22 -8 7 -38
-16 -31 -20 7 -28 -18 -9 -30 6 -4 8 -10 5 -15 -6 -10 23 -22 36 -14 14 8 10
-19 -6 -40 -12 -16 -19 -17 -55 -8 -47 12 -50 9 -14 -15 17 -10 51 -18 97 -20
38 -1 72 -5 74 -7 3 -3 0 -13 -6 -23 -6 -10 -11 -14 -11 -9 0 5 -7 3 -15 -4
-11 -9 -22 -9 -50 0 -19 6 -35 16 -35 21 0 6 -4 8 -10 4 -5 -3 -32 10 -60 30
-27 19 -57 35 -66 35 -9 0 -14 7 -12 18 3 12 12 16 31 15 25 -2 27 1 21 20 -9
31 -8 31 -49 2 -21 -14 -45 -25 -53 -25 -34 0 -95 25 -112 47 -21 27 -32 30
-23 6 5 -13 2 -15 -18 -10 -13 4 -51 12 -84 18 -33 6 -71 15 -85 19 -14 4 -39
7 -57 6 -17 -1 -29 2 -26 7 2 4 13 7 24 7 10 0 19 3 20 8 0 4 2 21 4 37 2 17
1 22 -2 12 -2 -10 -11 -16 -18 -13 -7 2 -16 -2 -19 -10 -7 -19 -42 -18 -50 1
-3 8 -1 15 3 15 13 0 23 32 13 39 -14 10 -30 64 -35 121 -1 8 -19 31 -41 50
l-39 35 6 -32 c4 -18 3 -33 -2 -33 -5 0 -12 17 -16 38 -7 34 -8 35 -16 14 -5
-13 -12 -21 -16 -19 -5 3 -6 -18 -4 -46 2 -29 6 -46 8 -39 8 21 23 13 23 -12
0 -13 3 -33 7 -43 6 -16 8 -15 13 7 4 14 6 -7 6 -46 -1 -71 -1 -72 -26 -68
-50 7 -72 13 -86 25 -8 6 -14 8 -14 3 0 -4 -5 -3 -12 4 -7 7 -22 12 -34 12
-13 0 -26 5 -30 11 -5 8 -10 6 -16 -5 -10 -17 -3 -36 13 -36 6 0 7 5 4 10 -3
6 -1 10 5 10 7 0 9 -7 6 -16 -3 -8 -1 -24 4 -35 8 -13 7 -19 0 -19 -6 0 -8 -5
-5 -10 4 -6 10 -8 14 -6 4 3 12 -4 19 -15 11 -17 9 -19 -13 -19 -14 0 -29 -8
-35 -20 -6 -12 -7 -20 -1 -20 5 0 7 -9 4 -21 -5 -16 -11 -19 -32 -14 -27 7
-43 23 -37 40 2 6 10 9 18 7 24 -4 29 23 8 41 -10 8 -21 13 -24 10 -3 -4 -6
-1 -6 5 0 20 -40 25 -61 6 -17 -15 -19 -15 -19 -1 0 8 6 17 13 20 6 2 9 8 5
12 -4 4 -17 -3 -30 -14 -19 -19 -20 -23 -8 -31 12 -8 11 -10 -6 -10 -11 0 -25
-5 -32 -12 -8 -8 -15 -8 -27 2 -13 10 -15 9 -16 -6 -1 -26 -28 70 -35 124 -3
26 -1 42 5 42 6 0 11 -6 11 -12 1 -7 8 0 16 15 15 27 16 28 31 10 14 -17 14
-16 8 7 -4 14 -7 34 -6 45 0 20 0 20 -15 1 -8 -11 -14 -23 -14 -28 0 -4 -7 -8
-15 -8 -25 0 -17 19 32 76 48 56 63 65 63 39 0 -8 4 -15 8 -15 9 0 7 46 -2 70
-3 8 -2 20 2 26 8 13 144 55 151 48 3 -3 5 -30 5 -60 -1 -29 2 -54 6 -54 10 0
35 30 53 65 l16 30 -2 -32 c-1 -18 -4 -33 -7 -33 -3 0 -7 -10 -7 -22 -1 -13
-5 -34 -8 -47 -5 -20 -8 -22 -16 -10 -7 11 -9 9 -9 -9 0 -15 -7 -26 -20 -29
-23 -6 -27 -41 -5 -49 22 -9 38 8 69 71 19 37 25 59 19 68 -11 14 -5 117 7
117 4 0 5 12 2 26 -3 19 -7 22 -13 12 -7 -10 -9 -9 -9 5 0 9 5 17 10 17 21 0
8 65 -26 131 -41 77 -58 88 -23 15 17 -38 19 -49 9 -61 -11 -13 -10 -18 2 -28
11 -8 14 -24 11 -54 -5 -46 -23 -55 -64 -32 -16 8 -25 7 -37 -4 -31 -26 -42
-29 -35 -11 4 12 3 15 -5 10 -8 -4 -12 0 -13 11 0 11 -3 13 -6 5 -2 -6 -9 -10
-14 -7 -5 4 -6 0 -3 -8 6 -16 -21 -42 -34 -33 -5 3 -12 23 -16 44 -3 22 -12
44 -19 50 -11 9 -13 6 -9 -18 7 -50 -16 -90 -66 -112 -70 -31 -129 -32 -118
-2 3 8 1 14 -4 14 -6 0 -10 -5 -10 -12 0 -6 -10 -3 -22 8 -12 10 -18 14 -15 8
16 -27 -26 -23 -54 5 -23 24 -26 30 -13 35 29 11 49 6 74 -17 30 -28 50 -24
50 9 0 27 16 64 34 77 6 5 2 6 -10 2 -20 -5 -21 -2 -19 45 2 41 -1 53 -16 61
-15 8 -19 6 -19 -6 0 -9 4 -13 10 -10 6 4 9 -16 8 -51 -3 -64 -13 -74 -55 -48
-16 10 -23 12 -15 4 17 -20 15 -25 -15 -40 -46 -23 -110 -37 -130 -29 -27 10
-51 -5 -26 -17 14 -6 8 -9 -27 -14 l-45 -7 43 -1 c23 -1 42 -6 42 -11 0 -11
-53 -51 -67 -51 -4 0 -13 -10 -18 -22 -15 -33 -80 -62 -134 -60 -26 1 -59 -4
-75 -13 -29 -15 -29 -15 -13 3 18 20 125 46 153 36 16 -5 17 -4 4 5 -18 14
-103 5 -142 -15 -37 -19 -38 -18 -38 16 0 17 -5 30 -11 30 -6 0 -9 -6 -6 -13
3 -8 -1 -14 -9 -14 -7 0 -16 7 -18 14 -6 16 17 28 38 20 23 -9 49 28 42 58 -4
17 -11 23 -19 19 -7 -4 -9 -4 -5 1 12 13 -23 86 -74 152 -53 71 -52 68 -37
112 10 29 13 30 28 18 12 -11 34 -14 81 -11 94 6 96 8 61 51 l-30 38 23 65
c13 36 29 78 35 93 6 16 9 32 6 37 -3 4 2 10 10 14 12 4 15 -3 15 -29 0 -58
51 -125 72 -93 4 7 8 9 8 5 0 -4 6 -2 14 5 8 7 12 22 9 33 -3 11 -7 30 -10 42
-4 16 3 30 25 50 23 22 32 43 42 95 13 74 6 106 -16 67 -10 -18 -13 -20 -14
-7 0 9 4 20 10 23 16 10 12 55 -5 55 -18 0 -18 0 -2 67 12 49 13 51 24 27 6
-13 8 -22 3 -19 -4 3 -10 -11 -12 -29 -2 -19 -1 -33 3 -30 4 2 10 -5 14 -16 3
-11 10 -20 14 -20 13 0 38 55 35 77 -3 16 2 22 18 25 16 2 24 12 29 35 3 18
14 45 24 60 18 28 18 28 -2 10 -23 -20 -33 -22 -33 -4 0 21 43 52 68 49 26 -4
32 25 7 35 -16 5 -55 77 -55 99 0 13 22 24 47 24 14 0 14 -2 0 -18 -24 -26
-21 -59 8 -86 22 -21 24 -28 18 -72 -6 -45 -5 -48 10 -35 14 11 17 11 17 0 0
-7 10 -3 25 11 35 33 32 72 -7 121 -18 22 -33 47 -34 57 -4 24 -30 40 -59 34
-23 -4 -25 -1 -25 31 0 19 -2 47 -6 63 -4 24 -1 31 21 41 26 12 26 12 11 -13
-9 -13 -12 -24 -7 -24 5 0 13 5 16 11 5 6 12 4 21 -8 12 -17 13 -17 14 -1 0
11 5 15 14 12 8 -3 17 0 21 5 3 6 11 9 16 6 5 -4 9 -1 9 4 0 6 -3 11 -8 11 -9
0 -10 100 -1 115 13 23 -16 89 -36 81 -9 -3 -15 0 -15 9 0 8 5 15 10 15 6 0
10 8 10 18 -1 30 -28 -14 -35 -59 -4 -21 -10 -39 -14 -39 -16 0 -20 13 -9 33
15 29 12 95 -7 123 -11 17 -13 30 -6 41 7 14 11 10 20 -22 6 -22 14 -45 19
-52 17 -27 52 30 51 84 0 27 -3 33 -8 19 -4 -10 -7 22 -7 70 -1 49 -4 104 -9
122 -5 21 -3 37 4 46 7 8 11 33 10 55 -2 24 3 46 10 54 11 10 13 7 9 -15 -6
-33 7 -38 16 -5 11 42 6 63 -24 97 -16 18 -33 42 -36 54 -4 11 -13 26 -20 34
-8 7 -14 18 -14 25 0 6 6 2 14 -9 22 -30 26 -14 12 59 -7 37 -9 67 -4 67 4 0
8 -9 8 -19 0 -22 20 -40 21 -19 0 10 2 10 6 1 2 -7 9 -13 14 -13 9 0 8 16 -6
75 -7 29 -7 29 8 10 16 -20 16 -20 17 5 0 15 -5 31 -11 37 -5 5 -12 30 -13 54
-5 59 -16 99 -28 99 -7 0 -8 -22 -4 -57 4 -42 3 -52 -4 -35 -5 12 -15 22 -22
22 -9 0 -10 2 -2 8 7 4 14 23 15 42 l4 35 -48 -2 -47 -1 20 28 c24 34 25 44 5
60 -10 9 -15 9 -15 1 0 -6 -5 -11 -11 -11 -7 0 -10 18 -7 48 3 44 1 47 -21 47
-36 1 -48 27 -28 58 9 14 13 27 9 30 -4 2 -1 2 6 1 7 -2 15 3 18 11 8 19 24
20 24 2 0 -14 27 -31 67 -42 19 -5 23 -1 33 36 11 41 11 42 -24 75 -42 39 -52
42 -61 14 -9 -28 -23 -25 -20 5 2 14 -1 25 -6 25 -6 0 -8 4 -5 9 7 11 -28 21
-74 21 l-34 0 34 24 c21 15 39 21 45 15 16 -16 30 -10 48 21 20 34 14 54 -14
47 -12 -3 -19 0 -19 10 0 8 -5 24 -11 35 -9 17 -13 18 -20 7 -6 -10 -9 -4 -9
19 0 22 4 31 11 26 8 -5 8 -1 0 14 -6 11 -11 30 -11 41 0 22 -8 25 -34 15 -22
-8 -20 -23 6 -51 17 -18 19 -26 10 -35 -9 -9 -12 -9 -12 3 0 8 -11 26 -25 41
-31 34 -25 50 26 72 22 10 47 29 55 42 9 13 25 24 35 24 10 0 21 5 25 11 3 6
19 9 34 5 24 -4 31 0 49 29 26 44 38 44 46 1z m-393 -191 c18 -24 8 -35 -17
-19 -14 9 -25 25 -25 36 0 18 2 19 18 7 9 -8 20 -18 24 -24z m49 -62 c12 -14
12 -16 0 -8 -9 5 -18 2 -27 -9 -14 -20 -27 -6 -18 18 8 21 28 20 45 -1z m161
-95 c-7 -7 -12 -8 -12 -2 0 14 12 26 19 19 2 -3 -1 -11 -7 -17z m-156 -217
c-3 -4 7 -6 22 -4 24 4 25 3 9 -7 -52 -33 -112 -29 -65 4 24 17 42 21 34 7z
m-41 -101 c3 -5 2 -10 -4 -10 -5 0 -13 5 -16 10 -3 6 -2 10 4 10 5 0 13 -4 16
-10z m109 -115 c-5 -11 -2 -13 10 -9 9 3 24 3 34 -1 12 -6 4 -11 -33 -19 -27
-7 -52 -11 -53 -10 -6 4 32 53 40 54 4 0 5 -7 2 -15z m192 -249 c-9 -31 -21
-54 -26 -51 -6 4 -10 12 -10 18 0 7 -9 19 -19 26 -19 14 -18 16 17 57 33 38
38 40 46 24 5 -11 2 -39 -8 -74z m284 72 c0 -19 -2 -20 -10 -8 -13 19 -13 30
0 30 6 0 10 -10 10 -22z m-545 -26 c-3 -3 -11 0 -18 7 -9 10 -8 11 6 5 10 -3
15 -9 12 -12z m165 -32 c13 -9 13 -11 0 -20 -22 -15 -30 -12 -30 10 0 22 8 25
30 10z m108 -112 c-2 -6 -12 -12 -21 -14 -9 -1 -15 2 -11 7 3 5 10 7 15 4 5
-4 9 -1 9 4 0 6 3 11 6 11 3 0 4 -5 2 -12z m-145 -105 c-7 -2 -19 -2 -25 0 -7
3 -2 5 12 5 14 0 19 -2 13 -5z m-266 -59 c-3 -3 -12 -4 -19 -1 -8 3 -5 6 6 6
11 1 17 -2 13 -5z m201 -134 c3 -8 -5 -6 -21 6 -15 10 -27 23 -27 28 0 12 43
-18 48 -34z m198 -605 c-5 -20 -12 -26 -28 -23 -29 4 -34 24 -8 31 11 3 20 13
20 23 0 13 3 15 11 7 7 -7 9 -23 5 -38z m-96 -550 c0 -7 -30 -13 -34 -7 -3 4
4 9 15 9 10 1 19 0 19 -2z m-90 -136 c0 -13 -27 -11 -36 3 -4 7 -3 8 4 4 7 -4
12 -2 12 4 0 6 5 8 10 5 6 -3 10 -10 10 -16z m-3 -131 c-3 -8 -6 -5 -6 6 -1
11 2 17 5 13 3 -3 4 -12 1 -19z m1198 -58 c4 -6 -1 -7 -11 -3 -14 5 -16 3 -10
-13 5 -14 4 -16 -5 -7 -12 12 -5 33 11 33 5 0 12 -4 15 -10z m-1425 -67 c-1
-21 2 -54 5 -73 6 -35 6 -35 -14 9 -21 43 -27 82 -14 94 15 16 23 5 23 -30z
m1007 -375 c-3 -8 -6 -5 -6 6 -1 11 2 17 5 13 3 -3 4 -12 1 -19z m-667 -93 c0
-8 -4 -15 -10 -15 -5 0 -10 7 -10 15 0 8 5 15 10 15 6 0 10 -7 10 -15z m610 8
c0 -5 -5 -15 -10 -23 -8 -12 -10 -11 -10 8 0 12 5 22 10 22 6 0 10 -3 10 -7z
m30 -3 c0 -5 -5 -10 -11 -10 -5 0 -7 5 -4 10 3 6 8 10 11 10 2 0 4 -4 4 -10z
m-610 -61 c0 -4 -9 -9 -21 -12 -17 -5 -20 -12 -17 -39 3 -30 0 -33 -27 -36
-24 -3 -28 -1 -17 9 6 7 12 21 12 32 0 14 -5 17 -21 12 -20 -7 -20 -6 2 19 12
14 25 23 29 21 5 -3 11 2 14 10 5 13 9 13 26 3 11 -7 20 -16 20 -19z m360 -18
c0 -18 -16 -46 -46 -82 -26 -30 -50 -55 -54 -57 -3 -1 -5 -27 -2 -56 3 -39 0
-61 -13 -82 -14 -23 -14 -25 -1 -10 9 11 16 16 17 10 4 -36 3 -50 -5 -56 -5
-3 -4 -19 4 -37 13 -32 6 -57 -9 -32 -6 9 -11 10 -15 2 -10 -15 -29 -14 -23 2
2 6 0 23 -5 36 -8 23 -9 24 -23 5 -8 -10 -15 -14 -15 -9 0 6 5 16 11 22 8 8 7
19 -4 39 -13 27 -13 31 10 54 24 24 58 80 49 80 -2 0 -14 -16 -25 -36 -14 -23
-27 -34 -36 -30 -8 3 -16 -3 -20 -15 -7 -20 -25 -27 -25 -9 0 11 -46 -6 -71
-27 -21 -17 -32 -16 -25 2 5 15 -14 20 -59 15 -17 -2 -18 0 -5 16 14 16 13 16
-5 7 -13 -7 -41 -8 -80 -2 -33 4 -61 6 -64 3 -2 -2 1 -4 7 -4 6 0 10 -9 9 -20
-1 -19 -17 -30 -17 -12 0 5 -7 9 -15 9 -15 0 -19 -10 -16 -34 1 -7 -9 -11 -26
-10 -16 1 -27 -3 -26 -9 3 -15 -25 -13 -31 3 -7 18 -24 17 -28 -2 -2 -10 -6
-7 -14 9 -9 19 -9 23 1 19 7 -2 16 0 20 6 3 6 14 11 24 11 11 0 29 9 42 20 23
18 23 19 4 21 -11 1 -30 0 -43 -1 -13 -1 -29 4 -37 10 -11 9 -17 7 -27 -9 -7
-12 -18 -21 -24 -21 -6 0 -30 -14 -52 -30 -32 -23 -42 -26 -42 -14 0 8 5 12
10 9 6 -3 13 1 16 10 5 13 -6 52 -35 119 -2 4 15 5 37 1 29 -4 47 -2 64 8 33
22 95 27 83 7 -3 -5 -2 -10 4 -10 6 0 15 9 21 20 13 25 76 30 66 5 -3 -8 -1
-15 4 -15 6 0 10 6 10 14 0 8 15 19 33 25 26 9 29 9 15 -2 -12 -9 -14 -18 -7
-30 12 -21 33 -23 25 -2 -9 23 29 54 76 61 35 6 40 5 35 -8 -8 -22 2 -29 23
-18 23 12 33 1 17 -18 -10 -13 -9 -14 11 -3 30 16 45 5 37 -27 -6 -25 -6 -26
13 -9 10 9 21 14 25 11 3 -3 10 4 17 15 7 14 7 21 0 21 -5 0 -10 5 -10 11 0 5
4 7 10 4 5 -3 7 0 4 8 -6 17 12 32 49 41 17 4 27 2 27 -4 0 -6 4 -9 9 -6 5 4
14 -6 20 -21 l10 -28 -2 34 c-1 22 3 36 12 39 11 4 13 -4 7 -39 -4 -31 -3 -39
4 -29 5 8 10 23 10 33 0 9 12 40 26 67 28 53 54 59 54 11z m-264 12 c7 -10 14
-26 14 -36 0 -15 -7 -18 -33 -16 -18 2 -38 0 -44 -4 -6 -4 -15 -2 -19 4 -4 7
6 24 25 41 37 33 40 33 57 11z m59 -3 c-3 -5 -12 -10 -20 -10 -8 0 -17 5 -20
10 -4 6 5 10 20 10 15 0 24 -4 20 -10z m435 6 c0 -3 -4 -8 -10 -11 -5 -3 -10
-1 -10 4 0 6 5 11 10 11 6 0 10 -2 10 -4z m-395 -16 c-3 -5 -13 -10 -21 -10
-8 0 -12 5 -9 10 3 6 13 10 21 10 8 0 12 -4 9 -10z m-712 -42 c-3 -18 -7 -35
-9 -37 -2 -2 1 -12 6 -22 14 -25 -1 -30 -27 -9 -15 12 -20 24 -16 39 3 11 9
21 13 21 5 0 12 9 15 20 10 33 25 23 18 -12z m597 -33 c0 -2 -9 -9 -20 -15
-22 -12 -44 -5 -35 11 6 9 55 13 55 4z m715 -5 c7 -12 -2 -12 -30 0 -19 8 -19
9 2 9 12 1 25 -3 28 -9z m849 -91 c14 22 23 10 22 -26 -1 -43 16 -56 26 -21 3
14 6 17 7 7 2 -36 36 -94 53 -91 19 4 38 -25 35 -56 -2 -31 -35 -29 -43 2 -4
18 -15 27 -37 31 -18 4 -43 14 -56 22 -12 8 -31 13 -41 10 -25 -6 -32 27 -15
67 7 17 16 40 20 51 5 15 8 16 14 6 6 -9 11 -10 15 -2z m-2123 -25 c5 -15 8
-27 7 -28 -24 -14 -58 -23 -58 -16 0 5 5 12 10 15 6 3 7 17 4 31 -9 34 23 32
37 -2z m9 -63 c0 -12 -7 -18 -21 -17 -15 1 -27 -10 -40 -33 -10 -19 -25 -42
-34 -50 -13 -14 -15 -13 -15 9 0 45 57 108 98 110 6 0 12 -8 12 -19z m1284 -2
c-3 -5 -10 -7 -15 -3 -5 3 -7 10 -3 15 3 5 10 7 15 3 5 -3 7 -10 3 -15z m-829
-29 c3 -6 -1 -13 -9 -16 -8 -3 -18 -16 -22 -27 -4 -12 -29 -46 -56 -74 -41
-44 -47 -56 -39 -72 8 -14 7 -22 -3 -30 -8 -7 -16 -8 -19 -4 -10 16 -4 63 9
73 8 7 11 24 7 45 -6 36 12 65 35 57 10 -3 8 -10 -8 -27 -12 -13 -20 -30 -17
-37 4 -8 8 -5 12 9 4 13 11 20 16 18 13 -9 28 59 15 67 -10 7 -9 9 13 12 5 0
13 4 17 9 11 10 42 9 49 -3z m160 -10 c3 -6 -1 -13 -10 -16 -19 -8 -30 0 -20
15 8 14 22 14 30 1z m492 -12 c-3 -8 -6 -5 -6 6 -1 11 2 17 5 13 3 -3 4 -12 1
-19z m-990 -4 c-3 -3 -12 -4 -19 -1 -8 3 -5 6 6 6 11 1 17 -2 13 -5z m1963
-29 c10 -12 10 -15 -4 -15 -9 0 -16 7 -16 15 0 8 2 15 4 15 2 0 9 -7 16 -15z
m-680 -9 c0 -2 -7 -6 -15 -10 -8 -3 -15 -1 -15 4 0 6 7 10 15 10 8 0 15 -2 15
-4z m149 -5 c16 -4 25 -15 26 -29 2 -26 1 -27 -22 -7 -10 8 -27 21 -38 29 -22
17 -9 19 34 7z m176 -61 c6 -5 14 -8 17 -5 6 6 146 -49 159 -62 4 -4 -11 -9
-34 -11 -35 -2 -46 2 -62 23 -19 23 -92 45 -79 24 3 -5 -4 -9 -15 -9 -26 0
-28 -16 -3 -25 9 -3 27 -21 39 -40 17 -27 19 -36 8 -45 -10 -8 -14 -5 -19 14
-7 27 -32 56 -48 56 -6 0 -5 -7 3 -17 12 -16 11 -16 -8 0 -12 10 -24 31 -28
45 -4 15 -17 41 -31 59 -13 17 -24 34 -24 37 0 7 110 -32 125 -44z m342 16
c21 -19 25 -27 17 -36 -9 -9 -17 -7 -33 9 -12 12 -25 21 -31 21 -5 0 -10 7
-10 15 0 22 25 18 57 -9z m-1397 -33 c0 -18 -10 -16 -27 5 -8 9 -12 11 -8 5 3
-7 1 -13 -6 -13 -8 0 -8 -4 1 -15 18 -21 5 -30 -22 -17 -13 6 -17 11 -10 11 7
1 11 5 7 10 -3 5 -1 12 4 16 6 3 8 12 5 20 -5 12 -1 12 25 2 17 -6 31 -17 31
-24z m140 -14 c0 -41 -3 -50 -15 -45 -9 3 -19 -3 -25 -14 -6 -11 -15 -20 -20
-20 -18 0 -10 24 20 64 17 22 30 46 30 53 0 7 2 13 5 13 3 0 5 -23 5 -51z
m714 24 c5 -11 2 -13 -11 -8 -10 4 -26 7 -37 7 -18 -1 -18 0 0 12 21 16 40 11
48 -11z m89 -5 c7 -25 3 -33 -12 -23 -13 8 -15 45 -2 45 5 0 11 -10 14 -22z
m-33 -43 c0 -2 -13 -5 -30 -7 -19 -3 -30 0 -30 7 0 7 11 10 30 7 17 -2 30 -5
30 -7z m603 -18 c-3 -5 -10 -4 -15 1 -6 6 -7 16 -3 22 6 9 9 9 16 -1 4 -7 5
-17 2 -22z m-2153 -22 c0 -8 -2 -15 -4 -15 -2 0 -6 7 -10 15 -3 8 -1 15 4 15
6 0 10 -7 10 -15z m1077 -7 c-3 -8 -6 -5 -6 6 -1 11 2 17 5 13 3 -3 4 -12 1
-19z m1067 13 c10 -15 -22 -20 -34 -5 -10 11 -9 14 8 14 12 0 23 -4 26 -9z
m-2179 -42 c4 -22 4 -43 1 -46 -3 -4 -6 1 -6 10 0 9 -5 19 -11 22 -7 5 -8 -7
-4 -38 4 -24 3 -47 -2 -50 -10 -6 -17 119 -7 134 11 19 23 7 29 -32z m-45 -1
c-1 -18 -5 -52 -9 -75 -7 -34 -5 -43 5 -43 19 0 18 -6 -7 -39 -13 -17 -19 -39
-17 -57 4 -36 -37 -77 -53 -53 -5 8 -7 19 -4 26 2 6 -1 13 -6 15 -14 5 0 38
16 38 13 0 30 48 20 58 -3 3 -11 0 -17 -6 -7 -7 -16 -12 -20 -12 -14 0 -9 28
6 33 8 3 16 29 20 66 5 41 12 64 24 70 31 18 42 12 42 -21z m770 17 c0 -20
-75 -39 -98 -25 -15 10 -15 10 3 6 11 -3 36 3 55 13 43 24 40 24 40 6z m720 5
c0 -5 -4 -10 -10 -10 -5 0 -10 5 -10 10 0 6 5 10 10 10 6 0 10 -4 10 -10z
m963 -5 c-3 -9 -8 -14 -10 -11 -3 3 -2 9 2 15 9 16 15 13 8 -4z m-343 -5 c0
-5 -9 -10 -19 -10 -11 0 -23 5 -26 10 -4 6 5 10 19 10 14 0 26 -4 26 -10z
m-815 -20 c-6 -10 -70 -30 -99 -30 -30 0 -13 10 41 25 61 17 66 17 58 5z m560
-37 c-19 -46 -23 -50 -30 -29 -3 9 -7 23 -10 31 -3 10 4 19 18 25 36 14 38 12
22 -27z m381 18 c0 -11 -5 -17 -13 -14 -10 4 -11 9 -2 19 15 18 15 18 15 -5z
m-2080 -69 c11 -22 8 -72 -5 -72 -18 1 -29 19 -36 58 -6 39 -5 43 11 40 10 -2
24 -13 30 -26z m44 -86 c0 -2 -11 -6 -25 -8 -13 -3 -22 -1 -19 3 5 9 44 13 44
5z m600 -11 c-7 -8 -16 -12 -21 -9 -13 8 -1 24 18 24 13 0 13 -3 3 -15z m109
12 c-2 -1 -12 -9 -22 -16 -15 -12 -17 -12 -11 3 3 9 13 16 22 16 8 0 13 -1 11
-3z m-929 -97 c0 -5 -2 -10 -4 -10 -3 0 -8 5 -11 10 -3 6 -1 10 4 10 6 0 11
-4 11 -10z"/>
<path d="M1573 4814 c-12 -26 -3 -33 15 -11 6 7 8 18 4 24 -5 7 -11 3 -19 -13z"/>
<path d="M1413 4532 c-6 -5 -6 -17 3 -37 l12 -30 11 28 c6 16 11 30 11 32 0 7
-28 13 -37 7z"/>
<path d="M1453 4497 c-8 -27 -7 -36 5 -43 8 -6 16 -24 17 -42 1 -17 -2 -29 -7
-26 -4 3 -8 0 -8 -6 0 -7 -6 -10 -14 -7 -8 3 -22 -3 -31 -13 -15 -17 -14 -18
17 -22 18 -3 40 -7 48 -9 8 -2 14 1 15 6 0 6 4 15 8 22 4 6 2 15 -3 18 -7 5
-5 11 6 19 16 12 16 15 -4 42 -25 36 -37 74 -23 74 6 0 11 5 11 10 0 24 -28 7
-37 -23z"/>
<path d="M1527 4495 c10 -13 21 -25 26 -25 11 0 -16 39 -31 45 -8 3 -6 -4 5
-20z"/>
<path d="M1340 4436 c-5 -14 -12 -26 -15 -26 -4 0 -3 5 0 10 7 11 -8 14 -18 3
-4 -3 2 -13 14 -21 16 -11 18 -17 8 -28 -19 -23 5 -42 26 -20 9 9 21 14 26 10
17 -10 20 24 5 54 -22 43 -34 47 -46 18z"/>
<path d="M1526 4351 c-3 -5 4 -11 16 -14 30 -8 35 -1 9 12 -11 6 -22 7 -25 2z"/>
<path d="M1390 4316 c0 -19 66 -57 85 -50 8 4 15 12 15 20 0 12 4 12 23 2 12
-7 29 -19 39 -26 19 -16 32 -1 24 26 -7 20 -46 48 -46 32 0 -5 4 -10 9 -10 5
0 11 -9 14 -20 5 -20 5 -20 -21 -2 -18 13 -42 18 -74 17 -26 -1 -45 1 -43 5 3
5 -2 10 -10 14 -9 3 -15 0 -15 -8z"/>
<path d="M1405 4234 c-4 -11 -7 -25 -6 -33 1 -7 -2 -10 -8 -6 -17 10 -13 -22
5 -39 21 -21 34 -20 34 3 0 11 4 21 8 23 4 2 0 18 -9 37 -14 30 -17 32 -24 15z"/>
<path d="M1467 4171 c-16 -6 -14 -10 17 -26 28 -15 38 -17 48 -7 9 9 8 15 -8
27 -21 16 -30 17 -57 6z"/>
<path d="M1560 4125 c0 -19 15 -30 45 -34 25 -3 27 -1 16 12 -7 9 -19 13 -28
10 -8 -3 -19 0 -24 8 -5 8 -9 10 -9 4z"/>
<path d="M1576 3927 c3 -10 9 -15 12 -12 3 3 0 11 -7 18 -10 9 -11 8 -5 -6z"/>
<path d="M1457 3874 c-18 -24 -18 -26 -2 -51 9 -14 12 -22 6 -19 -6 4 -11 2
-11 -4 0 -17 31 -24 41 -9 7 11 9 11 9 1 0 -7 4 -10 10 -7 6 3 -1 23 -16 46
-14 23 -23 43 -21 45 3 3 15 -11 27 -30 12 -20 22 -36 23 -36 1 0 3 11 3 25 1
14 -2 22 -7 19 -5 -3 -13 6 -19 20 -12 32 -20 32 -43 0z"/>
<path d="M1537 3510 c-8 -29 7 -61 16 -36 4 9 3 26 -2 38 l-8 22 -6 -24z"/>
<path d="M1730 3430 c0 -5 5 -10 10 -10 6 0 10 5 10 10 0 6 -4 10 -10 10 -5 0
-10 -4 -10 -10z"/>
<path d="M1828 3390 c22 -39 34 -39 21 0 -6 17 -17 30 -25 30 -10 0 -9 -6 4
-30z"/>
<path d="M1544 3310 c3 -51 8 -67 26 -82 16 -13 18 -18 7 -18 -27 0 -30 -19
-17 -94 11 -64 16 -73 46 -93 30 -19 54 -17 41 5 -3 4 -8 25 -11 47 -8 53 -26
105 -35 105 -4 0 -7 26 -5 58 3 77 -5 124 -21 118 -7 -2 -18 1 -24 7 -8 8 -10
-6 -7 -53z"/>
<path d="M1841 3314 c0 -11 3 -14 6 -6 3 7 2 16 -1 19 -3 4 -6 -2 -5 -13z"/>
<path d="M1700 3261 c0 -22 5 -43 10 -46 6 -3 10 0 10 7 0 10 2 10 9 0 5 -8
17 -12 27 -10 14 3 22 -5 31 -27 10 -26 12 -27 12 -7 1 25 16 30 25 7 4 -12
10 -13 31 -3 14 6 25 14 25 17 0 4 -14 22 -30 40 -23 25 -37 32 -55 28 -15 -2
-25 1 -25 7 0 6 -9 0 -20 -14 l-20 -25 0 33 c0 22 -5 32 -15 32 -11 0 -15 -11
-15 -39z"/>
<path d="M1646 3207 c-5 -21 -6 -41 -2 -44 12 -12 17 5 14 43 l-4 39 -8 -38z"/>
<path d="M1670 3211 c0 -17 5 -33 10 -36 6 -4 10 8 10 29 0 20 -4 36 -10 36
-5 0 -10 -13 -10 -29z"/>
<path d="M1532 3092 c1 -18 5 -35 10 -38 11 -7 10 37 -2 56 -6 10 -9 5 -8 -18z"/>
<path d="M1692 3027 c-24 -26 -27 -48 -11 -79 9 -17 13 -18 20 -7 11 18 11 32
0 25 -4 -3 -6 6 -3 19 2 14 8 22 13 19 5 -3 9 6 9 20 0 32 -1 32 -28 3z"/>
<path d="M1502 2985 c0 -16 2 -22 5 -12 2 9 2 23 0 30 -3 6 -5 -1 -5 -18z"/>
<path d="M1585 2979 c10 -32 21 -43 21 -20 0 10 -7 24 -14 31 -12 11 -13 9 -7
-11z"/>
<path d="M1522 2930 c0 -14 2 -19 5 -12 2 6 2 18 0 25 -3 6 -5 1 -5 -13z"/>
<path d="M1725 2918 c3 -16 1 -28 -5 -28 -11 0 -14 -53 -3 -63 3 -4 12 -2 19
4 10 8 11 16 3 30 -5 11 -7 23 -4 28 3 5 0 20 -5 33 -10 22 -10 22 -5 -4z"/>
<path d="M1972 2935 c4 -11 25 -59 41 -93 6 -13 19 -28 28 -33 27 -14 14 18
-33 81 -22 30 -38 51 -36 45z"/>
<path d="M1827 2904 c-19 -26 -15 -44 9 -44 8 0 14 10 14 25 0 19 4 23 18 18
18 -6 17 -5 -8 14 -12 9 -19 6 -33 -13z"/>
<path d="M1647 2903 c-2 -5 -7 -21 -11 -37 -5 -21 -10 -26 -15 -17 -6 9 -11 1
-15 -24 -4 -20 -10 -44 -13 -52 -4 -11 -2 -14 5 -9 8 5 12 -1 12 -17 0 -19 -4
-24 -17 -21 -29 7 -45 -10 -38 -39 9 -34 29 -23 22 11 -5 24 -4 25 8 9 7 -10
12 -35 10 -55 -3 -33 -2 -35 10 -19 13 18 14 17 20 -2 3 -12 3 -30 0 -41 -7
-23 7 -26 25 -5 8 10 10 30 6 57 -5 34 -2 50 14 73 23 34 27 104 8 124 -10 11
-10 12 -1 7 14 -8 29 36 18 53 -7 13 -42 15 -48 4z m-17 -223 c0 -5 -5 -10
-11 -10 -5 0 -7 5 -4 10 3 6 8 10 11 10 2 0 4 -4 4 -10z"/>
<path d="M1531 2857 c0 -10 -5 -15 -11 -12 -6 4 -10 -7 -9 -27 0 -18 3 -26 6
-18 3 8 10 18 15 21 6 4 8 17 5 30 -3 16 -5 18 -6 6z"/>
<path d="M1872 2851 c-10 -6 -5 -14 21 -30 46 -28 52 -27 27 9 -23 32 -28 34
-48 21z"/>
<path d="M1773 2806 c4 -10 0 -14 -14 -11 -16 3 -19 -2 -19 -40 0 -86 30 -180
61 -188 15 -4 17 -2 9 13 -14 26 -12 50 5 83 12 23 12 33 3 50 -7 12 -11 27
-9 32 8 23 7 51 -2 63 -13 17 -40 15 -34 -2z"/>
<path d="M1980 2787 c0 -8 7 -17 15 -21 8 -3 15 -2 15 3 0 5 -7 14 -15 21 -12
10 -15 10 -15 -3z"/>
<path d="M1702 2714 c-14 -68 -15 -84 -4 -84 24 0 42 99 23 128 -5 9 -12 -6
-19 -44z"/>
<path d="M1940 2703 l-24 -17 30 -13 29 -12 -28 -1 c-38 0 -25 -17 24 -32 33
-9 42 -9 49 2 10 17 3 36 -25 66 -27 29 -24 28 -55 7z m70 -53 c0 -5 -2 -10
-4 -10 -3 0 -8 5 -11 10 -3 6 -1 10 4 10 6 0 11 -4 11 -10z"/>
<path d="M1733 2634 c-3 -8 -1 -20 6 -27 8 -8 11 -4 11 16 0 30 -7 35 -17 11z"/>
<path d="M1740 2579 c0 -5 5 -7 10 -4 6 3 10 8 10 11 0 2 -4 4 -10 4 -5 0 -10
-5 -10 -11z"/>
<path d="M1842 2535 c-16 -13 -32 -22 -35 -19 -3 3 -15 0 -27 -6 -15 -8 -20
-8 -16 -1 14 23 -14 10 -29 -13 -22 -34 -16 -77 13 -87 13 -5 21 -5 18 0 -3 5
0 11 8 14 8 3 13 -1 12 -11 -1 -12 6 -17 22 -16 27 1 28 -4 5 -23 -13 -10 -15
-16 -5 -19 6 -3 12 -23 12 -44 0 -25 5 -40 16 -44 29 -11 40 -6 42 19 3 35 29
95 41 95 6 0 11 5 11 10 0 17 -21 11 -41 -12 l-18 -23 -1 28 c0 15 -9 41 -21
56 -12 16 -19 37 -16 47 4 16 5 15 6 -3 0 -13 7 -23 15 -23 8 0 22 -10 30 -21
19 -28 42 -19 51 22 6 27 3 35 -15 49 -15 12 -19 19 -10 22 7 2 1 9 -14 16
-22 10 -29 8 -54 -13z"/>
<path d="M1932 2538 c6 -18 28 -21 28 -4 0 9 -7 16 -16 16 -9 0 -14 -5 -12
-12z"/>
<path d="M1687 2523 c-4 -3 -7 -22 -6 -42 l1 -36 13 35 c7 19 14 38 14 43 1 9
-13 9 -22 0z"/>
<path d="M1640 2495 c-17 -20 -6 -74 19 -91 20 -14 35 -54 21 -54 -5 0 -13 8
-19 18 -8 14 -10 15 -15 2 -9 -29 -26 -171 -26 -221 0 -43 4 -54 31 -79 20
-18 36 -46 44 -77 l13 -48 1 90 c0 50 0 108 1 130 0 22 0 53 0 70 0 16 5 42
11 58 9 22 9 31 -4 45 -8 9 -26 52 -39 95 -21 66 -27 76 -38 62z m-3 -387 c-3
-7 -5 -2 -5 12 0 14 2 19 5 13 2 -7 2 -19 0 -25z"/>
<path d="M1960 2481 c0 -11 5 -23 10 -26 6 -4 10 5 10 19 0 14 -4 26 -10 26
-5 0 -10 -9 -10 -19z"/>
<path d="M1974 2420 c2 -18 28 -20 32 -2 1 7 0 8 -3 2 -7 -14 -21 -13 -26 3
-2 7 -3 6 -3 -3z"/>
<path d="M1797 2333 c-4 -3 -7 -16 -6 -27 0 -19 1 -19 10 3 10 24 8 36 -4 24z"/>
<path d="M1950 2275 c12 -15 30 -12 30 6 0 5 -10 9 -21 9 -18 0 -19 -2 -9 -15z"/>
<path d="M1876 2181 c-2 -3 -6 -24 -10 -46 l-6 -40 25 40 c29 47 30 52 10 52
-9 0 -17 -3 -19 -6z"/>
<path d="M1550 2160 c-6 -11 -8 -20 -6 -20 3 0 10 9 16 20 6 11 8 20 6 20 -3
0 -10 -9 -16 -20z"/>
<path d="M1966 2172 c-3 -5 -2 -18 1 -30 5 -21 6 -21 18 -5 7 9 11 23 8 30 -6
15 -19 17 -27 5z"/>
<path d="M1506 2111 c-8 -12 3 -41 15 -41 12 0 12 37 0 45 -5 3 -12 1 -15 -4z"/>
<path d="M1407 2075 c-22 -46 -21 -65 2 -65 15 0 21 10 26 41 9 55 -7 69 -28
24z"/>
<path d="M1767 2096 c-4 -10 -1 -13 9 -9 15 6 19 23 5 23 -5 0 -11 -7 -14 -14z"/>
<path d="M1890 2086 c-12 -33 -12 -36 -1 -36 10 0 25 50 17 58 -3 2 -10 -7
-16 -22z"/>
<path d="M1510 2035 c-18 -47 -22 -75 -12 -75 14 0 43 88 31 95 -5 4 -13 -6
-19 -20z"/>
<path d="M1757 2034 c-11 -11 -8 -54 3 -54 6 0 13 6 16 14 7 17 -9 50 -19 40z"/>
<path d="M1890 2030 c-12 -7 -12 -12 -3 -21 10 -10 14 -9 19 5 8 22 2 27 -16
16z"/>
<path d="M1632 2000 c0 -14 2 -19 5 -12 2 6 2 18 0 25 -3 6 -5 1 -5 -13z"/>
<path d="M1436 1994 c-4 -9 -9 -14 -13 -11 -11 11 -33 -14 -33 -38 0 -18 5
-23 24 -21 20 1 25 7 29 41 6 43 3 55 -7 29z"/>
<path d="M1902 1960 c0 -19 2 -27 5 -17 2 9 2 25 0 35 -3 9 -5 1 -5 -18z"/>
<path d="M1679 1903 c-10 -28 1 -50 20 -39 14 9 14 66 1 66 -6 0 -15 -12 -21
-27z"/>
<path d="M1513 1887 c-2 -30 -1 -31 9 -9 7 14 8 26 2 32 -6 6 -10 -2 -11 -23z"/>
<path d="M1890 1880 c1 -25 -1 -60 -5 -77 -5 -22 -4 -33 3 -33 16 0 35 39 27
57 -3 9 -8 32 -11 52 -8 52 -15 53 -14 1z"/>
<path d="M1487 1844 c-3 -6 -2 -16 2 -23 5 -7 5 -29 0 -49 -11 -49 -3 -53 11
-5 11 37 1 99 -13 77z"/>
<path d="M1301 1824 c0 -11 3 -14 6 -6 3 7 2 16 -1 19 -3 4 -6 -2 -5 -13z"/>
<path d="M1658 1810 c-19 -17 -24 -45 -10 -53 4 -3 15 10 24 29 19 38 12 50
-14 24z"/>
<path d="M1681 1755 c-1 -19 7 -37 19 -48 19 -16 20 -16 20 18 0 31 -19 62
-21 33 0 -7 -4 -4 -9 7 -7 17 -9 16 -9 -10z"/>
<path d="M1467 1689 c4 -15 8 -17 14 -8 8 14 3 29 -11 29 -4 0 -6 -9 -3 -21z"/>
<path d="M1647 1680 c-3 -11 -1 -33 3 -48 7 -23 8 -21 9 21 1 50 -3 60 -12 27z"/>
<path d="M1680 1680 c0 -6 4 -18 9 -28 5 -9 15 -30 22 -45 7 -16 27 -36 44
-44 l30 -16 -22 25 c-13 13 -23 36 -23 51 0 15 -9 36 -20 47 -22 22 -40 26
-40 10z"/>
<path d="M2080 1669 c0 -13 20 -33 40 -41 19 -7 25 32 7 44 -18 11 -47 10 -47
-3z"/>
<path d="M1259 1619 c-7 -19 -13 -37 -11 -41 1 -5 -2 -8 -8 -8 -5 0 -10 -12
-10 -27 0 -25 1 -25 19 -9 29 26 43 68 33 95 -8 23 -9 23 -23 -10z"/>
<path d="M1326 1609 c-3 -17 -5 -52 -5 -78 l1 -46 13 50 c16 60 18 105 6 105
-5 0 -11 -14 -15 -31z"/>
<path d="M1421 1624 c0 -11 3 -14 6 -6 3 7 2 16 -1 19 -3 4 -6 -2 -5 -13z"/>
<path d="M1427 1583 c-3 -5 -4 -18 -2 -29 2 -10 4 -23 5 -29 1 -5 5 1 11 13 9
24 -3 63 -14 45z"/>
<path d="M1806 1533 c1 -19 -3 -39 -12 -47 -8 -8 -14 -24 -14 -35 0 -11 -9
-22 -20 -26 -11 -4 -17 -11 -14 -17 4 -6 10 -6 17 1 17 17 26 13 20 -9 -3 -11
-9 -18 -13 -15 -5 3 -6 -4 -3 -14 3 -11 12 -22 20 -26 13 -4 13 -3 4 8 -8 11
-8 22 0 47 10 27 13 30 21 16 5 -9 14 -16 20 -16 9 0 9 3 0 12 -19 19 -15 48
8 48 11 0 20 7 20 15 0 37 40 3 41 -34 0 -15 3 -20 6 -13 2 6 11 12 19 12 8 0
14 4 14 9 0 11 -54 51 -69 51 -5 0 -14 7 -19 16 -5 9 -12 15 -15 15 -20 -3
-26 1 -30 17 -2 9 -3 2 -1 -15z m42 -48 c-3 -3 -9 2 -12 12 -6 14 -5 15 5 6 7
-7 10 -15 7 -18z"/>
<path d="M1083 1545 c-3 -9 -3 -19 1 -22 3 -3 1 -12 -4 -18 -7 -9 -6 -16 4
-24 12 -10 15 -9 15 6 0 10 3 30 7 46 7 29 -12 39 -23 12z"/>
<path d="M1710 1546 c0 -8 5 -18 10 -21 6 -3 10 1 10 9 0 8 -4 18 -10 21 -5 3
-10 -1 -10 -9z"/>
<path d="M1633 1533 c3 -13 1 -26 -5 -29 -5 -3 -7 -12 -4 -20 3 -8 1 -14 -4
-14 -6 0 -10 11 -10 24 0 14 -5 28 -11 32 -8 4 -9 -1 -4 -17 7 -22 6 -23 -9
-10 -16 13 -16 12 -4 -15 24 -55 36 -59 53 -18 18 43 18 54 4 74 -9 12 -10 11
-6 -7z"/>
<path d="M1680 1506 c0 -19 5 -38 10 -41 6 -4 10 8 10 29 0 19 -4 38 -10 41
-6 4 -10 -8 -10 -29z"/>
<path d="M2131 1448 c-10 -16 -10 -18 0 -12 9 5 11 2 6 -8 -3 -9 0 -24 7 -33
12 -17 13 -17 20 0 3 10 1 24 -5 31 -6 7 -8 18 -5 23 4 5 3 12 -2 15 -4 2 -14
-4 -21 -16z"/>
<path d="M1846 1391 c-9 -16 -16 -40 -16 -52 0 -16 -4 -20 -17 -15 -16 6 -16
6 0 -12 9 -10 21 -36 26 -58 9 -37 9 -36 10 26 1 36 5 81 11 99 13 45 6 51
-14 12z"/>
<path d="M1630 1391 c0 -6 4 -13 10 -16 6 -3 7 1 4 9 -7 18 -14 21 -14 7z"/>
<path d="M973 1373 c-18 -7 -16 -33 6 -74 11 -20 24 -55 31 -77 6 -23 17 -42
24 -42 21 0 26 11 14 34 -10 18 -31 93 -42 145 -3 17 -15 22 -33 14z"/>
<path d="M1078 1367 c-16 -13 -31 -57 -19 -57 9 0 44 60 39 66 -3 2 -11 -2
-20 -9z"/>
<path d="M1941 1373 c-1 -6 -4 -20 -7 -30 -5 -17 -5 -17 6 0 6 10 9 23 6 30
-3 9 -5 9 -5 0z"/>
<path d="M1505 1360 c-3 -5 -1 -10 4 -10 6 0 11 5 11 10 0 6 -2 10 -4 10 -3 0
-8 -4 -11 -10z"/>
<path d="M2015 1349 c9 -29 46 -91 52 -86 6 6 -41 107 -50 107 -5 0 -5 -10 -2
-21z"/>
<path d="M1864 1344 c3 -9 6 -20 6 -25 0 -5 4 -9 9 -9 5 0 8 8 6 18 -2 9 -4
20 -4 25 -1 4 -6 7 -12 7 -6 0 -8 -7 -5 -16z"/>
<path d="M1201 1323 c2 -44 14 -80 22 -66 8 12 -9 93 -18 93 -3 0 -5 -12 -4
-27z"/>
<path d="M1660 1346 c0 -2 8 -10 18 -17 15 -13 16 -12 3 4 -13 16 -21 21 -21
13z"/>
<path d="M1305 1280 c15 -17 10 -60 -9 -72 -6 -4 -7 -10 -3 -14 13 -13 25 9
32 56 6 42 5 46 -14 46 -18 0 -18 -2 -6 -16z"/>
<path d="M1890 1291 c0 -6 4 -13 10 -16 6 -3 7 1 4 9 -7 18 -14 21 -14 7z"/>
<path d="M1086 1274 c-10 -27 -7 -64 7 -64 9 0 11 12 9 40 -4 44 -7 48 -16 24z"/>
<path d="M1263 1247 c3 -25 21 -26 25 -2 2 15 1 17 -6 6 -8 -11 -11 -11 -16 0
-3 9 -5 7 -3 -4z"/>
<path d="M2175 1168 c-12 -26 -43 -26 -62 0 -7 9 -13 11 -13 5 0 -7 -7 -13
-17 -15 -10 -2 7 -15 43 -33 78 -40 114 -66 114 -82 0 -8 4 -12 9 -8 5 3 17
-5 25 -17 21 -30 20 -44 -1 -27 -10 7 -15 10 -11 5 4 -4 2 -19 -3 -33 -7 -18
-6 -30 3 -41 7 -8 19 -27 25 -41 8 -16 11 -18 8 -6 -4 15 3 23 24 33 21 9 28
18 24 32 -3 11 0 20 6 20 6 0 11 4 11 9 0 17 -40 -1 -40 -18 -1 -14 -3 -13
-15 3 -8 10 -12 23 -9 28 3 5 -1 20 -10 33 -9 13 -16 31 -16 39 0 8 -10 18
-22 22 -13 4 -35 16 -50 27 -26 19 -26 21 -12 48 16 32 17 39 6 39 -4 0 -12
-10 -17 -22z"/>
<path d="M1578 1164 c-2 -5 1 -20 8 -34 8 -14 13 -18 13 -10 -1 24 -15 55 -21
44z"/>
<path d="M1210 1129 c0 -5 5 -7 10 -4 6 3 10 8 10 11 0 2 -4 4 -10 4 -5 0 -10
-5 -10 -11z"/>
<path d="M1053 1070 c0 -25 2 -35 4 -22 2 12 2 32 0 45 -2 12 -4 2 -4 -23z"/>
<path d="M1140 1060 c-8 -5 -12 -12 -9 -15 4 -3 12 1 19 10 14 17 11 19 -10 5z"/>
<path d="M2421 1024 c0 -11 3 -14 6 -6 3 7 2 16 -1 19 -3 4 -6 -2 -5 -13z"/>
<path d="M2450 1021 c0 -5 7 -15 17 -22 15 -13 15 -12 4 9 -12 23 -21 28 -21
13z"/>
<path d="M2670 1006 c0 -14 5 -28 10 -31 6 -4 10 5 8 24 -3 37 -18 42 -18 7z"/>
<path d="M1800 1011 c0 -6 5 -13 10 -16 6 -3 10 1 10 9 0 9 -4 16 -10 16 -5 0
-10 -4 -10 -9z"/>
<path d="M1776 992 c-4 -7 -2 -12 3 -12 6 0 11 -7 11 -15 0 -8 5 -15 10 -15
14 0 13 13 -3 35 -10 12 -16 14 -21 7z"/>
<path d="M2420 990 c0 -5 5 -10 10 -10 6 0 10 5 10 10 0 6 -4 10 -10 10 -5 0
-10 -4 -10 -10z"/>
<path d="M2450 961 c0 -72 51 -112 64 -50 8 42 8 49 -3 49 -5 0 -12 -8 -14
-17 -4 -15 -5 -15 -6 2 0 11 -10 26 -21 33 -18 11 -20 10 -20 -17z"/>
<path d="M2630 955 c0 -28 5 -31 24 -13 11 10 11 15 0 25 -18 19 -24 16 -24
-12z"/>
<path d="M2566 933 c-3 -4 -6 -17 -6 -31 0 -19 4 -23 19 -19 10 2 18 -1 18 -7
-1 -37 5 -44 38 -48 27 -3 32 -1 23 9 -6 7 -8 26 -6 43 3 16 2 30 -1 31 -3 0
-15 2 -26 4 -11 2 -23 -1 -28 -8 -6 -8 -7 -6 -4 5 6 16 -15 32 -27 21z"/>
<path d="M1774 882 c0 -9 18 -25 40 -34 26 -12 36 -23 32 -33 -6 -17 21 -48
35 -40 5 4 9 13 9 22 0 13 -3 13 -15 3 -15 -13 -19 -8 -16 22 1 9 -17 29 -42
47 -36 25 -44 27 -43 13z"/>
<path d="M1882 864 c10 -10 20 -15 24 -12 3 4 -5 12 -18 18 -22 12 -22 12 -6
-6z"/>
<path d="M2350 860 c0 -6 5 -8 10 -5 6 3 10 1 10 -4 0 -6 -4 -11 -9 -11 -13 0
-1 -38 13 -43 7 -3 18 3 24 14 9 15 8 20 -6 28 -9 5 -16 13 -14 18 2 4 -4 9
-12 11 -9 2 -16 -2 -16 -8z"/>
<path d="M2751 857 c-1 -10 12 -44 29 -77 24 -47 34 -58 47 -52 17 6 17 7 1
10 -10 2 -18 8 -18 14 0 5 -8 22 -19 36 -10 15 -23 41 -29 57 -6 18 -11 23
-11 12z"/>
<path d="M2630 752 c0 -5 9 -17 20 -27 16 -14 20 -15 20 -4 0 16 -19 39 -32
39 -4 0 -8 -4 -8 -8z"/>
<path d="M2827 684 c-12 -12 4 -24 33 -24 16 0 32 5 36 11 4 7 0 9 -14 5 -11
-4 -23 -2 -27 4 -7 11 -19 13 -28 4z"/>
<path d="M1526 918 c-3 -13 -5 -34 -5 -48 1 -19 2 -21 6 -6 3 10 16 30 29 43
30 30 30 33 0 33 -16 0 -26 -7 -30 -22z"/>
</g>
</svg>
